<?xml version="1.0" encoding="utf-8"?>
<!-- Generator: Adobe Illustrator 24.0.3, SVG Export Plug-In . SVG Version: 6.00 Build 0)  -->
<svg version="1.1" id="Layer_1" xmlns="http://www.w3.org/2000/svg" xmlns:xlink="http://www.w3.org/1999/xlink" x="0px" y="0px"
	 viewBox="0 0 96.6 97.1" style="enable-background:new 0 0 96.6 97.1;" xml:space="preserve">
<style type="text/css">
	.st0{display:none;}
	.st1{display:inline;}
	.st2{clip-path:url(#SVGID_2_);}
	.st3{clip-path:url(#SVGID_4_);}
	.st4{fill:#6200EE;}
	.st5{display:none;fill:#6200EE;}
	.st6{display:inline;fill:#6200EE;}
</style>
<symbol  id="a" viewBox="-45 -44.7 90 89.4">
	<path d="M-0.7,43.7v-44v-2.4L1-1l30.8,31.7C39.7,22.5,44,11.7,44,0.3c0-24.3-19.7-44-44-44S-44-24-44,0.3
		C-44,24.2-24.5,43.2-0.7,43.7 M0.3,44.7C-24.6,44.7-45,25.1-45,0.3c0-24.9,20.1-45,45-45s45,20.1,45,45c0,12.4-5,23.7-13.2,31.8
		L0.3-0.3V44.7L0.3,44.7z"/>
</symbol>
<g class="st0">
	<path class="st1" d="M91.7-1.3h-6.3c-3.2,1-5.8,3.6-6.8,6.8c-1-3.2-3.6-5.8-6.9-6.8h-6.3c-3.2,1-5.8,3.6-6.8,6.8
		c-1-3.2-3.6-5.8-6.9-6.8h-6.3c-3.2,1-5.8,3.6-6.8,6.8c-1-3.2-3.6-5.8-6.9-6.8h-6.3c-3.2,1-5.8,3.6-6.8,6.8c-1-3.2-3.6-5.8-6.9-6.8
		H5.5c-3.3,1-5.9,3.6-6.9,6.9v6.3c1,3.2,3.6,5.8,6.8,6.8c-3.2,1-5.8,3.6-6.8,6.9v6.3c1,3.2,3.6,5.8,6.8,6.8c-3.2,1-5.8,3.6-6.8,6.9
		v6.3c1,3.2,3.6,5.8,6.8,6.8c-3.2,1-5.8,3.6-6.8,6.9v6.3c1,3.2,3.6,5.8,6.8,6.8c-3.2,1-5.8,3.6-6.8,6.9v6.3c1,3.3,3.6,5.8,6.9,6.9
		h6.3c3.2-1,5.8-3.6,6.9-6.8c1,3.2,3.6,5.8,6.9,6.8h6.3c3.2-1,5.8-3.6,6.9-6.8c1,3.2,3.6,5.8,6.9,6.8H52c3.2-1,5.8-3.6,6.9-6.8
		c1,3.2,3.6,5.8,6.9,6.8h6.3c3.2-1,5.8-3.6,6.9-6.8c1,3.2,3.6,5.8,6.9,6.8h6.3c3.3-1,5.8-3.6,6.9-6.9v-6.3c-1-3.2-3.6-5.8-6.8-6.9
		c3.2-1,5.8-3.6,6.8-6.9v-6.3c-1-3.2-3.6-5.8-6.8-6.9c3.2-1,5.8-3.6,6.8-6.9v-6.3c-1-3.2-3.6-5.8-6.8-6.9c3.2-1,5.8-3.6,6.8-6.9
		v-6.3c-1-3.2-3.6-5.8-6.8-6.9c3.2-1,5.8-3.6,6.8-6.9V5.6C97.6,2.3,95-0.3,91.7-1.3z M85.4,38.7c-3.2,1-5.8,3.6-6.8,6.8
		c-1-3.2-3.6-5.8-6.8-6.8c3.2-1,5.8-3.6,6.8-6.8C79.6,35.1,82.2,37.7,85.4,38.7z M61.8,48.7c3.2-1,5.8-3.6,6.8-6.8
		c1,3.2,3.6,5.8,6.8,6.8c-3.2,1-5.8,3.6-6.8,6.8C67.6,52.3,65,49.7,61.8,48.7z M75.4,28.7c-3.2,1-5.8,3.6-6.8,6.8
		c-1-3.2-3.6-5.8-6.8-6.8c3.2-1,5.8-3.6,6.8-6.8C69.6,25.1,72.2,27.7,75.4,28.7z M65.4,38.7c-3.2,1-5.8,3.6-6.8,6.8
		c-1-3.2-3.6-5.8-6.8-6.8c3.2-1,5.8-3.6,6.8-6.8C59.6,35.1,62.2,37.7,65.4,38.7z M41.8,48.7c3.2-1,5.8-3.6,6.8-6.8
		c1,3.2,3.6,5.8,6.8,6.8c-3.2,1-5.8,3.6-6.8,6.8C47.6,52.3,45,49.7,41.8,48.7z M55.4,28.7c-3.2,1-5.8,3.6-6.8,6.8
		c-1-3.2-3.6-5.8-6.8-6.8c3.2-1,5.8-3.6,6.8-6.8C49.6,25.1,52.2,27.7,55.4,28.7z M45.4,38.7c-3.2,1-5.8,3.6-6.8,6.8
		c-1-3.2-3.6-5.8-6.8-6.8c3.2-1,5.8-3.6,6.8-6.8C39.6,35.1,42.2,37.7,45.4,38.7z M21.8,48.7c3.2-1,5.8-3.6,6.8-6.8
		c1,3.2,3.6,5.8,6.8,6.8c-3.2,1-5.8,3.6-6.8,6.8C27.6,52.3,25,49.7,21.8,48.7z M35.4,28.7c-3.2,1-5.8,3.6-6.8,6.8
		c-1-3.2-3.6-5.8-6.8-6.8c3.2-1,5.8-3.6,6.8-6.8C29.6,25.1,32.2,27.7,35.4,28.7z M25.4,38.7c-3.2,1-5.8,3.6-6.8,6.8
		c-1-3.2-3.6-5.8-6.8-6.8c3.2-1,5.8-3.6,6.8-6.8C19.6,35.1,22.2,37.7,25.4,38.7z M15.4,28.7c-3.2,1-5.8,3.6-6.8,6.8
		c-1-3.2-3.6-5.8-6.8-6.8c3.2-1,5.8-3.6,6.8-6.8C9.6,25.1,12.2,27.7,15.4,28.7z M15.4,48.7c-3.2,1-5.8,3.6-6.8,6.8
		c-1-3.2-3.6-5.8-6.8-6.8c3.2-1,5.8-3.6,6.8-6.8C9.6,45.1,12.2,47.7,15.4,48.7z M15.4,68.7c-3.2,1-5.8,3.6-6.8,6.8
		c-1-3.2-3.6-5.8-6.8-6.8c3.2-1,5.8-3.6,6.8-6.8C9.6,65.1,12.2,67.7,15.4,68.7z M11.8,58.7c3.2-1,5.8-3.6,6.8-6.8
		c1,3.2,3.6,5.8,6.8,6.8c-3.2,1-5.8,3.6-6.8,6.8C17.6,62.3,15,59.7,11.8,58.7z M21.8,68.7c3.2-1,5.8-3.6,6.8-6.8
		c1,3.2,3.6,5.8,6.8,6.8c-3.2,1-5.8,3.6-6.8,6.8C27.6,72.3,25,69.7,21.8,68.7z M31.8,58.7c3.2-1,5.8-3.6,6.8-6.8
		c1,3.2,3.6,5.8,6.8,6.8c-3.2,1-5.8,3.6-6.8,6.8C37.6,62.3,35,59.7,31.8,58.7z M41.8,68.7c3.2-1,5.8-3.6,6.8-6.8
		c1,3.2,3.6,5.8,6.8,6.8c-3.2,1-5.8,3.6-6.8,6.8C47.6,72.3,45,69.7,41.8,68.7z M51.8,58.7c3.2-1,5.8-3.6,6.8-6.8
		c1,3.2,3.6,5.8,6.8,6.8c-3.2,1-5.8,3.6-6.8,6.8C57.6,62.3,55,59.7,51.8,58.7z M61.8,68.7c3.2-1,5.8-3.6,6.8-6.8
		c1,3.2,3.6,5.8,6.8,6.8c-3.2,1-5.8,3.6-6.8,6.8C67.6,72.3,65,69.7,61.8,68.7z M71.8,58.7c3.2-1,5.8-3.6,6.8-6.8
		c1,3.2,3.6,5.8,6.8,6.8c-3.2,1-5.8,3.6-6.8,6.8C77.6,62.3,75,59.7,71.8,58.7z M81.8,68.7c3.2-1,5.8-3.6,6.8-6.8
		c1,3.2,3.6,5.8,6.8,6.8c-3.2,1-5.8,3.6-6.8,6.8C87.6,72.3,85,69.7,81.8,68.7z M81.8,48.7c3.2-1,5.8-3.6,6.8-6.8
		c1,3.2,3.6,5.8,6.8,6.8c-3.2,1-5.8,3.6-6.8,6.8C87.6,52.3,85,49.7,81.8,48.7z M81.8,28.7c3.2-1,5.8-3.6,6.8-6.8
		c1,3.2,3.6,5.8,6.8,6.8c-3.2,1-5.8,3.6-6.8,6.8C87.6,32.3,85,29.7,81.8,28.7z M81.8,8.7c3.2-1,5.8-3.6,6.8-6.8
		c1,3.2,3.6,5.8,6.8,6.8c-3.2,1-5.8,3.6-6.8,6.8C87.6,12.3,85,9.7,81.8,8.7z M85.4,18.7c-3.2,1-5.8,3.6-6.8,6.8
		c-1-3.2-3.6-5.8-6.8-6.8c3.2-1,5.8-3.6,6.8-6.8C79.6,15.1,82.2,17.7,85.4,18.7z M75.4,8.7c-3.2,1-5.8,3.6-6.8,6.8
		c-1-3.2-3.6-5.8-6.8-6.8c3.2-1,5.8-3.6,6.8-6.8C69.6,5.1,72.2,7.7,75.4,8.7z M65.4,18.7c-3.2,1-5.8,3.6-6.8,6.8
		c-1-3.2-3.6-5.8-6.8-6.8c3.2-1,5.8-3.6,6.8-6.8C59.6,15.1,62.2,17.7,65.4,18.7z M55.4,8.7c-3.2,1-5.8,3.6-6.8,6.8
		c-1-3.2-3.6-5.8-6.8-6.8c3.2-1,5.8-3.6,6.8-6.8C49.6,5.1,52.2,7.7,55.4,8.7z M45.4,18.7c-3.2,1-5.8,3.6-6.8,6.8
		c-1-3.2-3.6-5.8-6.8-6.8c3.2-1,5.8-3.6,6.8-6.8C39.6,15.1,42.2,17.7,45.4,18.7z M35.4,8.7c-3.2,1-5.8,3.6-6.8,6.8
		c-1-3.2-3.6-5.8-6.8-6.8c3.2-1,5.8-3.6,6.8-6.8C29.6,5.1,32.2,7.7,35.4,8.7z M25.4,18.7c-3.2,1-5.8,3.6-6.8,6.8
		c-1-3.2-3.6-5.8-6.8-6.8c3.2-1,5.8-3.6,6.8-6.8C19.6,15.1,22.2,17.7,25.4,18.7z M15.4,8.7c-3.2,1-5.8,3.6-6.8,6.8
		c-1-3.2-3.6-5.8-6.8-6.8c3.2-1,5.8-3.6,6.8-6.8C9.6,5.1,12.2,7.7,15.4,8.7z M1.8,88.7c3.2-1,5.8-3.6,6.8-6.8c1,3.2,3.6,5.8,6.8,6.8
		c-3.2,1-5.8,3.6-6.8,6.8C7.6,92.3,5,89.7,1.8,88.7z M11.8,78.7c3.2-1,5.8-3.6,6.8-6.8c1,3.2,3.6,5.8,6.8,6.8
		c-3.2,1-5.8,3.6-6.8,6.8C17.6,82.3,15,79.7,11.8,78.7z M21.8,88.7c3.2-1,5.8-3.6,6.8-6.8c1,3.2,3.6,5.8,6.8,6.8
		c-3.2,1-5.8,3.6-6.8,6.8C27.6,92.3,25,89.7,21.8,88.7z M31.8,78.7c3.2-1,5.8-3.6,6.8-6.8c1,3.2,3.6,5.8,6.8,6.8
		c-3.2,1-5.8,3.6-6.8,6.8C37.6,82.3,35,79.7,31.8,78.7z M41.8,88.7c3.2-1,5.8-3.6,6.8-6.8c1,3.2,3.6,5.8,6.8,6.8
		c-3.2,1-5.8,3.6-6.8,6.8C47.6,92.3,45,89.7,41.8,88.7z M51.8,78.7c3.2-1,5.8-3.6,6.8-6.8c1,3.2,3.6,5.8,6.8,6.8
		c-3.2,1-5.8,3.6-6.8,6.8C57.6,82.3,55,79.7,51.8,78.7z M61.8,88.7c3.2-1,5.8-3.6,6.8-6.8c1,3.2,3.6,5.8,6.8,6.8
		c-3.2,1-5.8,3.6-6.8,6.8C67.6,92.3,65,89.7,61.8,88.7z M71.8,78.7c3.2-1,5.8-3.6,6.8-6.8c1,3.2,3.6,5.8,6.8,6.8
		c-3.2,1-5.8,3.6-6.8,6.8C77.6,82.3,75,79.7,71.8,78.7z M81.8,88.7c3.2-1,5.8-3.6,6.8-6.8c1,3.2,3.6,5.8,6.8,6.8
		c-3.2,1-5.8,3.6-6.8,6.8C87.6,92.3,85,89.7,81.8,88.7z"/>
</g>
<g class="st0">
	<g class="st1">
		<path d="M11.6,56.7v18.4c0,10.2,8.5,18.6,18.8,18.6h0.2v1h36v-1h0.2c10.3,0,18.8-8.4,18.8-18.6V56.7H11.6z"/>
		<g>
			<path d="M58.8,34.2c4.3-4.3,4.4-10.9,0.1-15.2c-4.1-4.1-4.1-10.8-0.2-14.7l-1-1c-3.9,3.9-4.5,11.9,0.1,16.5
				c3.8,3.8,3.9,9.5,0.1,13.3c-4.6,4.6-4.1,12.4-0.2,16.3l1-1C54.8,44.5,54.8,38.2,58.8,34.2z"/>
			<path d="M49.1,34.2c4.3-4.3,4.4-10.9,0.1-15.2C45.1,14.9,45.1,8.2,49,4.3l-1-1c-3.9,3.9-4.5,11.9,0.1,16.5
				c3.8,3.8,3.9,9.5,0.1,13.3c-4.6,4.6-4.1,12.4-0.2,16.3l1-1C45.1,44.5,45,38.2,49.1,34.2z"/>
			<path d="M39.3,34.2c4.3-4.3,4.4-10.9,0.1-15.2c-4.1-4.1-4.1-10.8-0.2-14.7l-1-1c-3.9,3.9-4.5,11.9,0.1,16.5
				c3.8,3.8,3.9,9.5,0.1,13.3c-4.6,4.6-4.1,12.4-0.2,16.3l1-1C35.3,44.5,35.3,38.2,39.3,34.2z"/>
		</g>
	</g>
</g>
<g class="st0">
	<g class="st1">
		<path d="M62.6,45.7V42c0-1.7-0.9-2.3-2.7-2.3h-7.2c-1.7,0-3.2,0.6-3.2,2.3v3.7h-2V43c0-1.2-3.2-2.2-7-2.2s-7,1-7,2.2v2.7H17.6v24
			h62v-24C79.6,45.7,62.6,45.7,62.6,45.7z"/>
		<ellipse cx="55.8" cy="33" rx="5.4" ry="5"/>
		<ellipse cx="40.3" cy="35.1" rx="5.3" ry="5.1"/>
	</g>
</g>
<g class="st0">
	<path class="st1" d="M84.1,41.1c-1-9-8.6-16-17.9-16c-6.5,0-12.2,3.5-15.4,8.7c-2.8-3.1-6.7-6.1-11.5-8.4
		c-11.3-5.7-22.9-5.8-25.7-0.1c-2.9,5.7,4,14.9,15.4,20.6c3.1,1.6,6.2,2.7,9.1,3.4c-1.8,2.8-2.9,6.2-2.9,9.8
		c0,8.2,5.5,15.1,13.1,17.3c0-0.4-0.1-0.9-0.1-1.3c0-7,4-13,9.8-16c2.5-1.3,5.3-2,8.2-2h0.1c0.3-2.6,1.1-5,2.4-7.1
		c1.4,2.3,2.2,5,2.4,7.8c1.2,0.3,2.2,0.8,3.3,1.3c5.8-3,9.8-9,9.8-16C84.2,42.4,84.2,41.7,84.1,41.1z M71.2,39.1c-1.7,0-3-1.1-3-2.5
		s1.3-2.5,3-2.5s3,1.1,3,2.5S72.9,39.1,71.2,39.1z"/>
</g>
<g class="st0">
	<path class="st1" d="M37.7,30.9c0,0,12.3-6.7,21,1c0,0-2.9-17,9-19c0,0,12.2-3.3,18,9c0,0,9.5,20.3-14,22c0,0,5.2,8.7,1,19
		c0,0,0.8,5.5-5,10c0,0-6.5,6.5-10,7c0,0-4.2,4.8-9,5c0,0-5.3-0.2-9-5c0,0-10.5-5-13-10c0,0-3.2-4.3-2-7c0,0-3.5-10.3,1-19
		c0,0-15.3,1.7-16-13c0,0,0-15.8,13-18c0,0,8.4-1.8,15,7C37.7,19.9,43.2,28.1,37.7,30.9z"/>
</g>
<g class="st0">
	<g class="st1">
		<path d="M-54.8,43.8c0.1,0.2,0.1,0.3,0.2,0.5c2.6,6.1,2.9,12.3,0.8,18.7c-0.1,0.3-0.2,0.7-0.1,1c0.2,1.5-0.1,2.9-0.9,4.2
			c-3.3,5.6-8,9.5-14.1,11.8c-0.4,0.1-0.6,0.3-0.9,0.6c-1.5,2-3.3,3.5-5.7,4.3c-2.7,0.8-5.2,0.3-7.5-1.2c-1.3-0.8-2.4-1.9-3.3-3.2
			c-0.2-0.2-0.4-0.4-0.7-0.5c-6.2-2.3-10.9-6.3-14.3-11.9c-0.9-1.4-1.1-3-0.8-4.6c0-0.1,0-0.3,0-0.4c-2.2-6.4-1.9-12.7,0.7-19
			c0-0.1,0.1-0.2,0.1-0.2v-0.1c-0.3,0-0.7,0.1-1,0.1c-6,0.6-11.3-2.5-13.6-8.1c-2.2-5.4-1.6-10.7,1.4-15.6c2.3-3.9,5.7-6.6,10.2-7.6
			c6.6-1.5,12.9,2,15.3,8.5c1.2,3.1,1.3,6.3,0.6,9.6c0,0.1-0.1,0.3-0.1,0.4v0.1c6.9-2.9,13.8-2.9,20.8,0c-0.1-0.9-0.3-1.8-0.4-2.6
			c-0.4-4.7,0.7-9,4-12.4c3.9-4.1,9.9-5.1,15.2-2.5c5.3,2.5,8.4,6.9,9.6,12.6c0.8,4.1,0.3,8.1-2,11.6c-3.1,4.7-7.4,6.7-13,6
			C-54.4,43.9-54.6,43.9-54.8,43.8z M-62.2,59.3L-62.2,59.3c0.1-0.4,0.2-0.8,0.4-1.3c1.2-4.2,1.3-8.5,0.6-12.8
			c-0.6-3.3-1.7-6.4-3.5-9.2c-0.9-1.4-2.1-2.7-3.5-3.6c-3-2-6.3-1.8-8.9,0.8c-0.3,0.3-0.6,0.6-0.8,0.9c-0.5-0.4-0.9-0.9-1.4-1.3
			c-1.5-1.2-3.1-1.9-5.1-1.6c-1.9,0.2-3.4,1.2-4.7,2.5c-1.4,1.3-2.4,2.8-3.2,4.5c-1.5,3-2.4,6.2-2.7,9.5c-0.4,3.8-0.1,7.6,1.2,11.3
			c0,0.1,0.1,0.2,0.1,0.4c-0.2-0.1-0.4-0.1-0.6-0.1c-0.6-0.1-1.2-0.2-1.7-0.2c-4.4,0.2-7.1,4.9-4.9,8.8c3.1,5.5,7.7,9.3,13.6,11.6
			c0.1,0,0.3,0.1,0.5,0.2c-0.7-1.2-1.3-2.3-2-3.4c0,0,0.1,0,0.1-0.1c0.1,0.1,0.2,0.3,0.3,0.4c0.7,1,1.5,2.1,2.2,3.1
			c1,1.5,2.3,2.9,3.9,3.8c2.9,1.7,5.8,1.7,8.7,0c1.5-0.9,2.6-2,3.6-3.4c0.8-1.2,1.7-2.4,2.5-3.6c0.1-0.1,0.2-0.2,0.3-0.4l0.1,0.1
			c-0.6,1.1-1.2,2.1-1.9,3.2c0.2,0,0.4,0,0.6-0.1c4.6-1.8,8.4-4.6,11.4-8.5c1-1.3,2-2.6,2.6-4.2c1.4-4-2-8.1-6.2-7.6
			C-61.2,59.1-61.7,59.2-62.2,59.3z M-66.1,26.2c0.4-2.5,1.3-4.8,2.8-6.9c0.4-0.6,0.2-1.1,0.1-1.7C-65.2,20.1-66.1,23-66.1,26.2z
			 M-50.9,42.3c0-0.1,0-0.1,0-0.2c-0.7,0.1-1.4,0.1-2,0.2C-52.3,42.3-51.6,42.3-50.9,42.3z"/>
		<path d="M-66.1,26.2c0-3.2,0.9-6.1,3-8.5c0,0.6,0.3,1.1-0.1,1.7C-64.8,21.4-65.7,23.7-66.1,26.2z"/>
		<path d="M-50.9,42.3c-0.7,0-1.4,0-2,0c0.6-0.1,1.3-0.1,2-0.2C-50.9,42.2-50.9,42.3-50.9,42.3z"/>
		<path d="M-78.6,70.1c-1.6,0-3.4-0.5-4.9-1.7c-2.3-1.8-2.3-4.6-0.1-6.4c0.4-0.4,1-0.7,1.5-0.9c1.6-0.8,3.4-1,5.2-0.7
			c1.5,0.2,2.9,0.7,4.1,1.7c1,0.8,1.6,1.9,1.6,3.2c-0.1,1.3-0.7,2.3-1.6,3C-74.2,69.5-76.1,70.1-78.6,70.1z"/>
		<path d="M-94.9,64.7c0.1,0.1,0.1,0.2,0.2,0.3c1.7,4.4,4.8,7.4,9.1,9.2c6.2,2.5,12.2,2.1,17.9-1.4c2.4-1.5,4.3-3.5,5.6-6
			c0.3-0.6,0.5-1.2,0.8-1.9c0.2-0.4,0-0.6-0.3-0.6c-0.6-0.1-1.3-0.3-1.9-0.4c-0.3,0-0.6,0-1,0c1.8-0.8,5.3,0.5,5.8,2.8
			c-0.7-0.8-1.3-1.7-2.3-2.1c0,0.1-0.1,0.1-0.1,0.2c-0.8,3.4-2.9,5.9-5.6,7.9c-0.5,0.3-1,0.6-1.5,1c-0.2,0.1-0.3,0.3-0.4,0.5
			c-1,1.4-1.9,2.9-2.9,4.3c-0.9,1.3-1.9,2.4-3.2,3.2c-2.7,1.5-5.7,1.1-7.9-1c-0.8-0.7-1.4-1.6-2.1-2.5c-0.9-1.3-1.8-2.6-2.6-3.9
			c-0.2-0.3-0.4-0.5-0.7-0.7c-2.6-1.6-4.7-3.6-6.1-6.4C-94.5,66.3-94.7,65.5-94.9,64.7L-94.9,64.7z M-82.3,80.2
			c2,2.5,7.3,2.2,8.8-0.3c-0.9-0.2-1.8-0.1-2.7,0.2c-0.2,0.1-0.5,0.1-0.7,0c-1-0.5-2.1-0.6-3.3-0.4C-80.8,79.8-81.5,80-82.3,80.2z"
			/>
		<path d="M-85,60c0.7-0.4,1.5-0.8,2.2-1.3c-2-1.9-2.4-4.5-2.8-7.1c-0.3-2.2-0.4-4.4,0-6.5c0.2-0.8,0.4-1.7,0.8-2.4
			c0.6-1.2,1.7-1.3,2.5-0.3c0.5,0.6,0.9,1.2,1.1,1.9c1.4,4,1.8,8.1,0.9,12.2c-0.1,0.6-0.4,1.1-0.6,1.8C-79,58-77,58-75.2,58.4
			c-0.3-0.9-0.6-1.8-0.8-2.7c-0.4-2.1-0.4-4.2-0.1-6.4c0.2-1.6,0.5-3.3,1.1-4.8c0.3-0.7,0.6-1.4,1.1-2c0.9-1.2,2-1,2.7,0.2
			c0.5,1,0.7,2,0.8,3c0.3,3.3,0.1,6.6-1,9.7c-0.3,0.8-0.6,1.5-1,2.2c-0.3,0.5-0.7,0.8-1.1,1.2c0.6,0.4,1.3,0.8,2,1.2
			c0,0.1,0,0.1-0.1,0.2c-2.1-1-4.3-1.7-6.7-1.7c-2.4,0-4.5,0.7-6.7,1.7C-84.9,60.1-84.9,60.1-85,60z M-73.8,58.4L-73.8,58.4
			c0.3-0.1,0.6-0.2,0.7-0.4c0.4-0.6,0.9-1.2,1.1-1.9c1.3-3.4,1.6-6.9,1.2-10.6c-0.1-0.9-0.3-1.8-0.8-2.7c-0.6-0.9-1.2-1-1.9-0.1
			c-0.3,0.4-0.6,0.9-0.8,1.4c-1.3,3-1.6,6.1-1.5,9.3c0,0.1,0,0.2,0.1,0.5c0.2-0.7,0.3-1.2,0.4-1.8c0.1-0.4,0.3-0.9,0.6-1.2
			c0.5-0.8,1.2-0.7,1.6,0.1c0.1,0.2,0.2,0.4,0.2,0.7c0.1,0.6,0.2,1.2,0.3,1.8C-72.6,55.2-72.8,56.9-73.8,58.4z M-80.3,53.9
			c0-0.2,0-0.2,0-0.3c0.1-2.1,0-4.3-0.5-6.4c-0.3-1.5-0.7-3-1.6-4.3c-0.9-1.2-1.7-1.1-2.3,0.2c-0.4,1-0.6,2.1-0.7,3.1
			c-0.3,1.8-0.1,3.7,0.2,5.5c0.2,1.7,0.6,3.4,1.4,4.9c0.3,0.5,0.6,0.9,1,1.4c0.1,0.1,0.3,0.2,0.5,0.3c-0.3-0.6-0.5-1-0.7-1.5
			c-0.5-1.4-0.6-2.8-0.4-4.2c0.1-0.7,0.3-1.3,0.6-1.9c0.3-0.7,0.9-0.7,1.4-0.1c0.3,0.4,0.5,0.9,0.7,1.4
			C-80.5,52.7-80.4,53.3-80.3,53.9z M-81.7,51.2c-0.2-0.2-0.4-0.5-0.6-0.5c-0.3,0-0.4,0.3-0.4,0.6s0.1,0.6,0.4,0.6
			C-82.1,51.8-81.9,51.5-81.7,51.2z M-74.6,51.2c0.2,0.2,0.4,0.4,0.6,0.5c0.1-0.2,0.3-0.3,0.4-0.5s-0.1-0.6-0.4-0.5
			C-74.3,50.7-74.4,51-74.6,51.2z"/>
		<path d="M-94.9,64.7c-0.7,0.1-1.1,0.7-1.6,1.2c-0.2,0.3-0.5,0.6-0.7,0.9c0.2-1.6,3.1-3.6,5.8-2.8c-0.5,0-1,0-1.5,0.1
			c-0.6,0.1-1.2,0.3-1.8,0.4C-94.8,64.5-94.8,64.6-94.9,64.7L-94.9,64.7z"/>
		<path d="M-81.7,51.2c-0.2,0.3-0.4,0.6-0.5,0.6c-0.3,0-0.4-0.3-0.4-0.6s0-0.6,0.4-0.6C-82.1,50.7-81.9,51-81.7,51.2z"/>
		<path d="M-74.6,51.2c0.2-0.2,0.4-0.5,0.6-0.5c0.3,0,0.4,0.3,0.4,0.5s-0.2,0.4-0.4,0.5C-74.2,51.6-74.4,51.5-74.6,51.2z"/>
	</g>
	<g class="st1">
		<g>
			<path d="M71.7,43.9c0,0.2,0.1,0.3,0.1,0.5c2.6,6.1,2.8,12.2,0.7,18.4c-0.1,0.3-0.2,0.6-0.1,1c0.2,1.5-0.1,2.8-0.9,4.1
				c-3.3,5.5-7.9,9.4-14,11.6c-0.4,0.1-0.6,0.3-0.8,0.6c-1.5,2-3.3,3.5-5.6,4.2c-2.6,0.8-5.1,0.3-7.4-1.2c-1.3-0.8-2.4-1.9-3.3-3.1
				c-0.2-0.2-0.4-0.4-0.7-0.5c-6.1-2.2-10.8-6.1-14.1-11.7c-0.8-1.4-1.1-2.9-0.8-4.5c0-0.1,0-0.2,0-0.4c-2.2-6.3-1.9-12.6,0.7-18.7
				c0-0.1,0.1-0.2,0.1-0.2v-0.1c-0.3,0-0.7,0.1-1,0.1c-5.9,0.5-11.1-2.5-13.4-8C9,30.6,9.6,25.5,12.5,20.5c2.3-3.9,5.7-6.5,10.1-7.5
				c6.6-1.5,12.8,2,15.2,8.4c1.2,3.1,1.3,6.3,0.6,9.5c0,0.1-0.1,0.3-0.1,0.4v0.1c6.8-2.9,13.7-2.9,20.5,0c-0.2-0.9-0.4-1.7-0.5-2.6
				c-0.4-4.7,0.7-8.9,4-12.3c3.9-4,9.8-5,15-2.5c5.3,2.5,8.3,6.8,9.5,12.5c0.8,4,0.3,8-2,11.5c-3,4.6-7.4,6.6-12.9,6
				C72,43.9,71.8,43.9,71.7,43.9z M64.3,59.2C64.3,59.1,64.3,59.1,64.3,59.2c0.1-0.4,0.2-0.7,0.3-1c1.5-4.8,1.4-9.7,0.3-14.6
				c-0.7-3.1-2-6.1-4-8.6c-1-1.2-2.1-2.3-3.6-3c-1.1-0.6-2.3-0.8-3.6-0.7c-2,0.2-3.5,1.2-4.8,2.7c-0.2,0.3-0.4,0.3-0.6,0
				c-0.9-1.1-2-1.9-3.3-2.4c-2.3-0.8-4.3-0.2-6.2,1.1c-1.6,1.1-2.8,2.6-3.7,4.2c-2.3,3.8-3.3,8-3.4,12.4c-0.1,3.2,0.2,6.4,1.3,9.5
				c0,0.1,0.1,0.2,0,0.3s-0.2,0-0.3,0c-0.6-0.2-1.3-0.3-1.9-0.3c-4.4,0.2-7,4.9-4.8,8.7c3.1,5.4,7.6,9.2,13.4,11.5
				c0.1,0.1,0.3,0.1,0.5,0c-0.6-1.1-1.4-2.1-1.8-3.3c0.2,0.1,0.3,0.3,0.4,0.4c0.7,1,1.5,2.1,2.2,3.1c1,1.5,2.2,2.8,3.8,3.8
				c2.9,1.7,5.7,1.7,8.6,0c1.5-0.8,2.6-2,3.6-3.4c0.8-1.2,1.7-2.4,2.5-3.6c0.1-0.1,0.1-0.3,0.4-0.3c-0.1,0.2-0.1,0.3-0.2,0.4
				c-0.4,0.8-0.9,1.7-1.5,2.5c-0.1,0.1-0.2,0.2-0.1,0.3c0.1,0.1,0.3,0,0.4,0c0.1,0,0.1,0,0.2-0.1c4.4-1.8,8.2-4.5,11.1-8.3
				c1-1.3,2.1-2.7,2.6-4.3c1.3-3.9-2-8-6.1-7.5C65.2,58.9,64.8,59.1,64.3,59.2z M60.4,26.4c0.4-2.5,1.3-4.8,2.8-6.8
				c0.4-0.6,0.2-1.1,0.1-1.7C61.3,20.5,60.5,23.3,60.4,26.4z M13.4,22.2C13.5,22.2,13.5,22.2,13.4,22.2c0.2-0.1,0.3-0.3,0.4-0.4
				c1-1.3,2.1-2.5,3.4-3.5c0.6-0.4,0.6-0.5,0.3-1.2C15.8,18.5,14.5,20.2,13.4,22.2z M73.4,42.4c0.5,0,1.1,0.1,1.6,0.1
				c0.1,0,0.4,0,0.4-0.2s-0.3-0.1-0.4-0.1C74.4,42.3,73.9,42.4,73.4,42.4z M21.4,42.3c0.4,0.1,0.8,0.1,1.2,0
				C22.2,42.3,21.8,42.3,21.4,42.3z"/>
			<path d="M48.1,69.9c-1.6,0-3.3-0.5-4.8-1.7c-2.2-1.7-2.3-4.5-0.1-6.3c0.4-0.4,0.9-0.7,1.5-0.9c1.6-0.7,3.4-0.9,5.1-0.7
				c1.5,0.2,2.9,0.7,4.1,1.7c1,0.8,1.6,1.9,1.6,3.2c-0.1,1.2-0.6,2.2-1.6,3C52.4,69.3,50.5,69.9,48.1,69.9z M45.5,64.5
				c1.2-0.1,2.2-0.3,3.1-1.2c0.7-0.7,0.5-1.5-0.4-1.7c-1.5-0.3-2.8,0.1-4,1.1C44.1,62.8,44,62.9,44,63c-0.3,0.5-0.1,0.9,0.3,1.2
				C44.7,64.5,45.1,64.5,45.5,64.5z M52.7,67.4c-0.2,0.1-0.4,0.2-0.6,0.4c-0.1,0.1,0,0.2,0.1,0.3c0.2,0.2,0.4-0.1,0.6-0.2
				c0,0,0.1,0,0.1-0.1c0.1-0.1,0.2-0.1,0.1-0.2C52.9,67.6,52.9,67.5,52.7,67.4z"/>
			<path d="M31.9,64.5c0.1,0.1,0.1,0.2,0.2,0.3c1.7,4.3,4.8,7.3,9,9.1c6.1,2.5,12.1,2.1,17.7-1.4c2.4-1.4,4.2-3.4,5.6-5.9
				c0.3-0.6,0.5-1.2,0.8-1.8c0.1-0.4,0-0.5-0.3-0.6c-0.6-0.2-1.2-0.3-1.9-0.3c-0.3,0-0.6,0-1,0c1.7-0.8,5.2,0.5,5.7,2.7
				c-0.3-0.3-0.5-0.6-0.7-0.9c-0.3-0.4-0.7-0.8-1.2-1.1c-0.2-0.1-0.3-0.1-0.4,0.2c-0.9,3.4-3,5.9-5.8,7.9c-0.4,0.3-0.8,0.5-1.2,0.8
				c-0.2,0.1-0.3,0.3-0.4,0.4c-1,1.4-1.9,2.9-2.9,4.3c-0.8,1.2-1.8,2.4-3.2,3.1c-2.6,1.4-5.6,1.1-7.8-1c-0.8-0.7-1.4-1.6-2-2.5
				c-0.9-1.3-1.7-2.6-2.6-3.9c-0.2-0.3-0.4-0.5-0.7-0.7c-2.6-1.6-4.7-3.6-6-6.3C32.3,66.1,32,65.3,31.9,64.5L31.9,64.5z M47.5,79.2
				c-0.9,0-1.8,0.2-2.7,0.5c-0.3,0.1-0.3,0.2-0.1,0.4c0.2,0.2,0.5,0.3,0.7,0.5c2.4,1.5,5.5,1.2,7.5-0.9c0.1-0.1,0.2-0.1,0.2-0.3
				c0-0.1-0.2-0.1-0.3-0.1c-0.8-0.1-1.6,0-2.3,0.3c-0.2,0.1-0.4,0.1-0.7,0C49.1,79.4,48.3,79.2,47.5,79.2z"/>
			<path d="M41.9,60c0.5-0.5,1.1-0.9,1.8-1.2c0.1,0,0.3,0,0.3-0.2s-0.2-0.2-0.2-0.3c-0.5-0.4-0.8-0.9-1.1-1.5
				c-0.7-1.4-1.1-2.9-1.4-4.5c-0.4-2.4-0.5-4.9-0.1-7.3c0.1-0.8,0.3-1.7,0.8-2.4c0.7-1.1,1.6-1.2,2.5-0.3c0.5,0.6,0.8,1.2,1.1,1.9
				c1.4,3.9,1.8,8,0.9,12.1c-0.1,0.6-0.4,1.1-0.7,1.8c2-0.4,3.9-0.3,5.9,0.1c-0.6-0.9-0.8-1.8-0.9-2.7c-0.4-2.1-0.3-4.2-0.1-6.3
				c0.2-1.6,0.5-3.2,1.1-4.8c0.3-0.7,0.6-1.4,1.1-2c0.9-1.1,2-1,2.6,0.3c0.5,0.9,0.7,1.9,0.8,2.9c0.3,3.3,0.1,6.5-0.9,9.6
				c-0.3,0.8-0.6,1.6-1.1,2.3c-0.2,0.3-0.5,0.7-0.9,0.9c-0.1,0-0.2,0.1-0.2,0.2c0,0.1,0.1,0.1,0.2,0.2c0.7,0.3,1.2,0.7,1.8,1.1
				c-2.1-0.9-4.3-1.6-6.6-1.6C46.1,58.4,44,59.1,41.9,60z M52.7,58.3c0.4,0,0.6-0.2,0.8-0.4c0.5-0.5,0.9-1.2,1.1-1.9
				c1.3-3.4,1.6-6.9,1.2-10.4c-0.1-0.9-0.3-1.8-0.8-2.6c-0.6-0.9-1.2-1-1.9-0.1c-0.3,0.4-0.6,0.9-0.8,1.4c-1.2,2.9-1.6,6-1.5,9.2
				c0,0.1,0,0.3,0.1,0.4c0.1-0.6,0.2-1.2,0.4-1.7c0.1-0.4,0.3-0.8,0.6-1.2c0.6-0.8,1.2-0.7,1.6,0.1c0.1,0.2,0.2,0.4,0.2,0.6
				c0.2,0.6,0.2,1.2,0.3,1.8C54,55.1,53.8,56.8,52.7,58.3z M46.4,53.8c0-0.2,0-0.2,0-0.3c0.1-2.1,0-4.2-0.5-6.3
				c-0.3-1.5-0.7-3-1.6-4.2c-0.8-1.2-1.6-1.1-2.3,0.2c-0.5,1-0.6,2-0.7,3.1c-0.2,1.8-0.1,3.7,0.2,5.5c0.2,1.7,0.6,3.3,1.4,4.8
				c0.3,0.5,0.5,1,1,1.4c0.2,0.1,0.3,0.3,0.6,0.2c-0.4-0.4-0.6-0.9-0.8-1.4c-0.5-1.4-0.6-2.8-0.4-4.2c0.1-0.7,0.2-1.3,0.6-1.9
				c0.4-0.6,0.9-0.7,1.4-0.1c0.3,0.4,0.6,0.9,0.7,1.4C46.1,52.7,46.3,53.2,46.4,53.8z M44.9,51.2c-0.1-0.2-0.1-0.6-0.4-0.5
				c-0.3,0-0.4,0.3-0.4,0.6s0.1,0.6,0.4,0.6C44.8,51.8,44.8,51.4,44.9,51.2z M52.1,51.2c0,0.3,0.1,0.5,0.4,0.5
				c0.3,0,0.4-0.3,0.4-0.5c0-0.3-0.1-0.5-0.4-0.5S52.2,51,52.1,51.2z"/>
			<path d="M32,64.5c-0.7,0.1-1.1,0.7-1.6,1.2c-0.2,0.3-0.5,0.6-0.7,0.9c0.2-1.6,3.1-3.6,5.7-2.8c-0.5,0-1,0.1-1.5,0.1
				c-0.6,0-1.2,0.2-1.8,0.4C32.1,64.3,32,64.4,32,64.5L32,64.5z"/>
		</g>
	</g>
</g>
<g class="st0">
	<path class="st1" d="M83.2,21.7H80h-3.2c-1,0-2.2,0.3-2.2,1.3v3.2v3.2c0,1,1.1,2.3,2.2,2.3H80h3.2c1,0,1.4-1.3,1.4-2.3v-3.2V23
		C84.6,22,84.2,21.7,83.2,21.7z M83.6,26.2v3.2c0,0.4,0.1,1.3-0.4,1.3H80h-3.2c-0.5,0-1.2-0.9-1.2-1.3v-3.2V23
		c0-0.4,0.7-0.3,1.2-0.3H80h3.2c0.5,0,0.4-0.2,0.4,0.3V26.2z"/>
	<path class="st1" d="M83.2,36.7H80h-3.2c-1,0-2.2,0.4-2.2,1.4v3.2v3.2c0,1,1.1,2.2,2.2,2.2H80h3.2c1,0,1.4-1.2,1.4-2.2v-3.2v-3.2
		C84.6,37.1,84.2,36.7,83.2,36.7z M83.6,41.3v3.2c0,0.4,0.1,1.2-0.4,1.2H80h-3.2c-0.5,0-1.2-0.7-1.2-1.2v-3.2v-3.2
		c0-0.4,0.7-0.4,1.2-0.4H80h3.2c0.5,0,0.4-0.1,0.4,0.4V41.3z"/>
	<path class="st1" d="M83.2,51.7H80h-3.2c-1,0-2.2,0.4-2.2,1.4v3.2v3.2c0,1,1.1,2.2,2.2,2.2H80h3.2c1,0,1.4-1.2,1.4-2.2v-3.2v-3.2
		C84.6,52.1,84.2,51.7,83.2,51.7z M83.6,56.3v3.2c0,0.4,0.1,1.2-0.4,1.2H80h-3.2c-0.5,0-1.2-0.7-1.2-1.2v-3.2v-3.2
		c0-0.4,0.7-0.4,1.2-0.4H80h3.2c0.5,0,0.4,0,0.4,0.4V56.3z"/>
	<path class="st1" d="M83.2,66.7H80h-3.2c-1,0-2.2,0.6-2.2,1.6v3.2v3.2c0,1,1.1,2,2.2,2H80h3.2c1,0,1.4-1,1.4-2v-3.2v-3.2
		C84.6,67.3,84.2,66.7,83.2,66.7z M83.6,71.5v3.2c0,0.4,0.1,1-0.4,1H80h-3.2c-0.5,0-1.2-0.6-1.2-1v-3.2v-3.2c0-0.4,0.7-0.6,1.2-0.6
		H80h3.2c0.5,0,0.4,0.1,0.4,0.6V71.5z"/>
	<path class="st1" d="M22.4,21.7h-3.2H16c-1,0-2.4,0.4-2.4,1.4v3.2v3.2c0,1,1.4,2.2,2.4,2.2h3.2h3.2c1,0,1.2-1.2,1.2-2.2v-3.2v-3.2
		C23.6,22.1,23.5,21.7,22.4,21.7z M22.6,26.3v3.2c0,0.4,0.3,1.2-0.2,1.2h-3.2H16c-0.5,0-1.4-0.7-1.4-1.2v-3.2v-3.2
		c0-0.4,0.9-0.4,1.4-0.4h3.2h3.2c0.5,0,0.2,0,0.2,0.4C22.6,23.1,22.6,26.3,22.6,26.3z"/>
	<path class="st1" d="M22.4,36.7h-3.2H16c-1,0-2.4,0.6-2.4,1.6v3.2v3.2c0,1,1.4,2,2.4,2h3.2h3.2c1,0,1.2-1,1.2-2v-3.2v-3.2
		C23.6,37.3,23.5,36.7,22.4,36.7z M22.6,41.5v3.2c0,0.4,0.3,1-0.2,1h-3.2H16c-0.5,0-1.4-0.6-1.4-1v-3.2v-3.2c0-0.4,0.9-0.6,1.4-0.6
		h3.2h3.2c0.5,0,0.2,0.1,0.2,0.6C22.6,38.3,22.6,41.5,22.6,41.5z"/>
	<path class="st1" d="M22.4,51.7h-3.2H16c-1,0-2.4,0.6-2.4,1.6v3.2v3.2c0,1,1.4,2,2.4,2h3.2h3.2c1,0,1.2-1,1.2-2v-3.2v-3.2
		C23.6,52.3,23.5,51.7,22.4,51.7z M22.6,56.5v3.2c0,0.4,0.3,1-0.2,1h-3.2H16c-0.5,0-1.4-0.6-1.4-1v-3.2v-3.2c0-0.4,0.9-0.6,1.4-0.6
		h3.2h3.2c0.5,0,0.2,0.1,0.2,0.6C22.6,53.3,22.6,56.5,22.6,56.5z"/>
	<path class="st1" d="M22.4,66.7h-3.2H16c-1,0-2.4,0.8-2.4,1.8v3.2v3.2c0,1,1.4,1.8,2.4,1.8h3.2h3.2c1,0,1.2-0.8,1.2-1.8v-3.2v-3.2
		C23.6,67.5,23.5,66.7,22.4,66.7z M22.6,71.7v3.2c0,0.4,0.3,0.8-0.2,0.8h-3.2H16c-0.5,0-1.4-0.4-1.4-0.8v-3.2v-3.2
		c0-0.4,0.9-0.8,1.4-0.8h3.2h3.2c0.5,0,0.2,0.3,0.2,0.8C22.6,68.5,22.6,71.7,22.6,71.7z"/>
	<path class="st1" d="M83.6,9.7v2.8c0,1,0.7,3.2-0.3,3.2h-3.2h-3.2c-1,0-3.3-2.2-3.3-3.2V9.7H50.1H23.6v0.8v3.2c0,1,0.7,3-0.3,3
		h-3.2h-3.2c-1,0-3.3-2-3.3-3v-3.2V9.7h-5v37.2v39.8h5v-1.2v-3.2c0-1,2.3-0.6,3.3-0.6h3.2h3.2c1,0,0.3-0.4,0.3,0.6v3.2v1.2h50v-3.6
		c0-1,2.3-1.4,3.3-1.4h3.2h3.2c1,0,0.3,0.4,0.3,1.4v3.6h4V46.9V9.7H83.6z M86.6,46.9v38.8h-2v-2.6c0-1.9,0.1-2.4-1.3-2.4h-3.2h-3.2
		c-1.5,0-4.3,0.8-4.3,2.4v2.6h-48v-3.4c0-0.7,0.8-1.6-1.3-1.6h-3.2h-3.2c-1.7,0-4.3,0-4.3,1.6v3.4h-3V46.9V10.7h3v-0.2v3.2
		c0,1.5,2.7,4,4.3,4h3.2h3.2c1,0,1.3-1.3,1.3-4v-3.2v0.2h25.5h22.5v1.8c0,1.5,2.7,4.2,4.3,4.2h3.2h3.2c1.6,0,1.3-2.5,1.3-4.2v-1.8h2
		V46.9z"/>
</g>
<g class="st0">
	<rect x="95.6" y="91.7" class="st1" width="5" height="5"/>
	<g class="st1">
		<g>
			<g>
				<defs>
					<rect id="SVGID_1_" x="3.6" y="3.7" width="90" height="89.4"/>
				</defs>
				<clipPath id="SVGID_2_">
					<use xlink:href="#SVGID_1_"  style="overflow:visible;"/>
				</clipPath>
				<g class="st2">
					<g>
						<g>
							<defs>
								<rect id="SVGID_3_" x="3.6" y="3.7" width="90" height="89.4"/>
							</defs>
							<clipPath id="SVGID_4_">
								<use xlink:href="#SVGID_3_"  style="overflow:visible;"/>
							</clipPath>
							<g class="st3">
								<g>
									<defs>
										<rect id="SVGID_5_" x="3.6" y="3.7" width="90" height="89.4"/>
									</defs>
									<clipPath id="SVGID_6_">
										<use xlink:href="#SVGID_5_"  style="overflow:visible;"/>
									</clipPath>
									<g style="clip-path:url(#SVGID_6_);">
										
											<use xlink:href="#a"  width="90" height="89.4" x="-45" y="-44.7" transform="matrix(1 0 0 -1 48.5755 48.3897)" style="overflow:visible;"/>
									</g>
								</g>
							</g>
						</g>
					</g>
				</g>
			</g>
		</g>
	</g>
</g>
<g>
	<path class="st4" d="M87.6,3.7v2.4c0,0.9-0.7,1.6-1.6,1.6h-4.8c-0.9,0-1.6-0.7-1.6-1.6V3.7h-62v2.4c0,0.9-0.7,1.6-1.6,1.6h-4.8
		c-0.9,0-1.6-0.7-1.6-1.6V3.7h-6v90h6v-2.4c0-0.9,0.7-1.6,1.6-1.6H16c0.9,0,1.6,0.7,1.6,1.6v2.4h62v-2.4c0-0.9,0.7-1.6,1.6-1.6H86
		c0.9,0,1.6,0.7,1.6,1.6v2.4h6v-90C93.6,3.7,87.6,3.7,87.6,3.7z M17.6,81.1c0,0.9-0.7,1.6-1.6,1.6h-4.8c-0.9,0-1.6-0.7-1.6-1.6v-4.8
		c0-0.9,0.7-1.6,1.6-1.6H16c0.9,0,1.6,0.7,1.6,1.6V81.1z M17.6,66.1c0,0.9-0.7,1.6-1.6,1.6h-4.8c-0.9,0-1.6-0.7-1.6-1.6v-4.8
		c0-0.9,0.7-1.6,1.6-1.6H16c0.9,0,1.6,0.7,1.6,1.6V66.1z M17.6,51.1c0,0.9-0.7,1.6-1.6,1.6h-4.8c-0.9,0-1.6-0.7-1.6-1.6v-4.8
		c0-0.9,0.7-1.6,1.6-1.6H16c0.9,0,1.6,0.7,1.6,1.6V51.1z M17.6,36.1c0,0.9-0.7,1.6-1.6,1.6h-4.8c-0.9,0-1.6-0.7-1.6-1.6v-4.8
		c0-0.9,0.7-1.6,1.6-1.6H16c0.9,0,1.6,0.7,1.6,1.6V36.1z M17.6,21.1c0,0.9-0.7,1.6-1.6,1.6h-4.8c-0.9,0-1.6-0.7-1.6-1.6v-4.8
		c0-0.9,0.7-1.6,1.6-1.6H16c0.9,0,1.6,0.7,1.6,1.6V21.1z M87.6,81.1c0,0.9-0.7,1.6-1.6,1.6h-4.8c-0.9,0-1.6-0.7-1.6-1.6v-4.8
		c0-0.9,0.7-1.6,1.6-1.6H86c0.9,0,1.6,0.7,1.6,1.6V81.1z M87.6,66.1c0,0.9-0.7,1.6-1.6,1.6h-4.8c-0.9,0-1.6-0.7-1.6-1.6v-4.8
		c0-0.9,0.7-1.6,1.6-1.6H86c0.9,0,1.6,0.7,1.6,1.6V66.1z M87.6,51.1c0,0.9-0.7,1.6-1.6,1.6h-4.8c-0.9,0-1.6-0.7-1.6-1.6v-4.8
		c0-0.9,0.7-1.6,1.6-1.6H86c0.9,0,1.6,0.7,1.6,1.6V51.1z M87.6,36.1c0,0.9-0.7,1.6-1.6,1.6h-4.8c-0.9,0-1.6-0.7-1.6-1.6v-4.8
		c0-0.9,0.7-1.6,1.6-1.6H86c0.9,0,1.6,0.7,1.6,1.6V36.1z M87.6,21.1c0,0.9-0.7,1.6-1.6,1.6h-4.8c-0.9,0-1.6-0.7-1.6-1.6v-4.8
		c0-0.9,0.7-1.6,1.6-1.6H86c0.9,0,1.6,0.7,1.6,1.6V21.1z"/>
	<path class="st5" d="M91.6,5.7v86h-2v-0.4c0-2-1.6-3.6-3.6-3.6h-4.8c-2,0-3.6,1.6-3.6,3.6v0.4h-58v-0.4c0-2-1.6-3.6-3.6-3.6h-4.8
		c-2,0-3.6,1.6-3.6,3.6v0.4h-2v-86h2v0.4c0,2,1.6,3.6,3.6,3.6H16c2,0,3.6-1.6,3.6-3.6V5.7h58v0.4c0,2,1.6,3.6,3.6,3.6H86
		c2,0,3.6-1.6,3.6-3.6V5.7H91.6 M11.1,24.7H16c2,0,3.6-1.6,3.6-3.6v-4.9c0-2-1.6-3.6-3.6-3.6h-4.9c-2,0-3.6,1.6-3.6,3.6v4.9
		C7.6,23.1,9.2,24.7,11.1,24.7 M81.2,24.7H86c2,0,3.6-1.6,3.6-3.6v-4.8c0-2-1.6-3.6-3.6-3.6h-4.8c-2,0-3.6,1.6-3.6,3.6v4.8
		C77.6,23.1,79.2,24.7,81.2,24.7 M11.1,39.8h5c2,0,3.6-1.6,3.6-3.6v-5c0-2-1.6-3.6-3.6-3.6h-5c-2,0-3.6,1.6-3.6,3.6v5
		C7.5,38.2,9.1,39.8,11.1,39.8 M81.2,39.7H86c2,0,3.6-1.6,3.6-3.6v-4.8c0-2-1.6-3.6-3.6-3.6h-4.8c-2,0-3.6,1.6-3.6,3.6v4.8
		C77.6,38.1,79.2,39.7,81.2,39.7 M81.2,54.7H86c2,0,3.6-1.6,3.6-3.6v-4.8c0-2-1.6-3.6-3.6-3.6h-4.8c-2,0-3.6,1.6-3.6,3.6v4.8
		C77.6,53.1,79.2,54.7,81.2,54.7 M11.2,54.7H16c2,0,3.6-1.6,3.6-3.6v-4.8c0-2-1.6-3.6-3.6-3.6h-4.8c-2,0-3.6,1.6-3.6,3.6v4.8
		C7.6,53.1,9.2,54.7,11.2,54.7 M81.2,69.7H86c2,0,3.6-1.6,3.6-3.6v-4.8c0-2-1.6-3.6-3.6-3.6h-4.8c-2,0-3.6,1.6-3.6,3.6v4.8
		C77.6,68.1,79.2,69.7,81.2,69.7 M11.2,69.7H16c2,0,3.6-1.6,3.6-3.6v-4.8c0-2-1.6-3.6-3.6-3.6h-4.8c-2,0-3.6,1.6-3.6,3.6v4.8
		C7.6,68.1,9.2,69.7,11.2,69.7 M81.2,84.7H86c2,0,3.6-1.6,3.6-3.6v-4.8c0-2-1.6-3.6-3.6-3.6h-4.8c-2,0-3.6,1.6-3.6,3.6v4.8
		C77.6,83.1,79.2,84.7,81.2,84.7 M11.2,84.7H16c2,0,3.6-1.6,3.6-3.6v-4.8c0-2-1.6-3.6-3.6-3.6h-4.8c-2,0-3.6,1.6-3.6,3.6v4.8
		C7.6,83.1,9.2,84.7,11.2,84.7 M93.6,3.7h-6v2.4c0,0.9-0.7,1.6-1.6,1.6h-4.8c-0.9,0-1.6-0.7-1.6-1.6V3.7h-62v2.4
		c0,0.9-0.7,1.6-1.6,1.6h-4.8c-0.9,0-1.6-0.7-1.6-1.6V3.7h-6v90h6v-2.4c0-0.9,0.7-1.6,1.6-1.6H16c0.9,0,1.6,0.7,1.6,1.6v2.4h62v-2.4
		c0-0.9,0.7-1.6,1.6-1.6H86c0.9,0,1.6,0.7,1.6,1.6v2.4h6V3.7L93.6,3.7z M11.1,22.7c-0.9,0-1.6-0.7-1.6-1.6v-4.9
		c0-0.9,0.7-1.6,1.6-1.6H16c0.9,0,1.6,0.7,1.6,1.6v4.9c0,0.9-0.7,1.6-1.6,1.6H11.1L11.1,22.7z M81.2,22.7c-0.9,0-1.6-0.7-1.6-1.6
		v-4.8c0-0.9,0.7-1.6,1.6-1.6H86c0.9,0,1.6,0.7,1.6,1.6v4.8c0,0.9-0.7,1.6-1.6,1.6L81.2,22.7L81.2,22.7z M11.1,37.8
		c-0.9,0-1.6-0.7-1.6-1.6v-5c0-0.9,0.7-1.6,1.6-1.6h5c0.9,0,1.6,0.7,1.6,1.6v5c0,0.9-0.7,1.6-1.6,1.6H11.1L11.1,37.8z M81.2,37.7
		c-0.9,0-1.6-0.7-1.6-1.6v-4.8c0-0.9,0.7-1.6,1.6-1.6H86c0.9,0,1.6,0.7,1.6,1.6v4.8c0,0.9-0.7,1.6-1.6,1.6H81.2L81.2,37.7z
		 M81.2,52.7c-0.9,0-1.6-0.7-1.6-1.6v-4.8c0-0.9,0.7-1.6,1.6-1.6H86c0.9,0,1.6,0.7,1.6,1.6v4.8c0,0.9-0.7,1.6-1.6,1.6H81.2
		L81.2,52.7z M11.2,52.7c-0.9,0-1.6-0.7-1.6-1.6v-4.8c0-0.9,0.7-1.6,1.6-1.6H16c0.9,0,1.6,0.7,1.6,1.6v4.8c0,0.9-0.7,1.6-1.6,1.6
		H11.2L11.2,52.7z M81.2,67.7c-0.9,0-1.6-0.7-1.6-1.6v-4.8c0-0.9,0.7-1.6,1.6-1.6H86c0.9,0,1.6,0.7,1.6,1.6v4.8
		c0,0.9-0.7,1.6-1.6,1.6H81.2L81.2,67.7z M11.2,67.7c-0.9,0-1.6-0.7-1.6-1.6v-4.8c0-0.9,0.7-1.6,1.6-1.6H16c0.9,0,1.6,0.7,1.6,1.6
		v4.8c0,0.9-0.7,1.6-1.6,1.6H11.2L11.2,67.7z M81.2,82.7c-0.9,0-1.6-0.7-1.6-1.6v-4.8c0-0.9,0.7-1.6,1.6-1.6H86
		c0.9,0,1.6,0.7,1.6,1.6v4.8c0,0.9-0.7,1.6-1.6,1.6H81.2L81.2,82.7z M11.2,82.7c-0.9,0-1.6-0.7-1.6-1.6v-4.8c0-0.9,0.7-1.6,1.6-1.6
		H16c0.9,0,1.6,0.7,1.6,1.6v4.8c0,0.9-0.7,1.6-1.6,1.6H11.2L11.2,82.7z"/>
	<path class="st5" d="M92.6,4.7v88h-4v-1.4c0-1.4-1.2-2.6-2.6-2.6h-4.8c-1.4,0-2.6,1.2-2.6,2.6v1.4h-60v-1.4c0-1.4-1.2-2.6-2.6-2.6
		h-4.8c-1.4,0-2.6,1.2-2.6,2.6v1.4h-4v-88h4v1.4c0,1.4,1.2,2.6,2.6,2.6H16c1.4,0,2.6-1.2,2.6-2.6V4.7h60v1.4c0,1.4,1.2,2.6,2.6,2.6
		H86c1.4,0,2.6-1.2,2.6-2.6V4.7H92.6 M11.1,23.7H16c1.4,0,2.6-1.2,2.6-2.6v-4.9c0-1.4-1.2-2.6-2.6-2.6h-4.9c-1.4,0-2.6,1.2-2.6,2.6
		v4.9C8.6,22.6,9.7,23.7,11.1,23.7 M81.2,23.7H86c1.4,0,2.6-1.2,2.6-2.6v-4.8c0-1.4-1.2-2.6-2.6-2.6h-4.8c-1.4,0-2.6,1.2-2.6,2.6
		v4.8C78.6,22.5,79.8,23.7,81.2,23.7 M11.1,38.8h5c1.4,0,2.6-1.2,2.6-2.6v-5c0-1.4-1.2-2.6-2.6-2.6h-5c-1.4,0-2.6,1.2-2.6,2.6v5
		C8.5,37.6,9.7,38.8,11.1,38.8 M81.2,38.7H86c1.4,0,2.6-1.2,2.6-2.6v-4.8c0-1.4-1.2-2.6-2.6-2.6h-4.8c-1.4,0-2.6,1.2-2.6,2.6v4.8
		C78.6,37.5,79.8,38.7,81.2,38.7 M81.2,53.7H86c1.4,0,2.6-1.2,2.6-2.6v-4.8c0-1.4-1.2-2.6-2.6-2.6h-4.8c-1.4,0-2.6,1.2-2.6,2.6v4.8
		C78.6,52.5,79.8,53.7,81.2,53.7 M11.2,53.7H16c1.4,0,2.6-1.2,2.6-2.6v-4.8c0-1.4-1.2-2.6-2.6-2.6h-4.8c-1.4,0-2.6,1.2-2.6,2.6v4.8
		C8.6,52.5,9.8,53.7,11.2,53.7 M81.2,68.7H86c1.4,0,2.6-1.2,2.6-2.6v-4.8c0-1.4-1.2-2.6-2.6-2.6h-4.8c-1.4,0-2.6,1.2-2.6,2.6v4.8
		C78.6,67.5,79.8,68.7,81.2,68.7 M11.2,68.7H16c1.4,0,2.6-1.2,2.6-2.6v-4.8c0-1.4-1.2-2.6-2.6-2.6h-4.8c-1.4,0-2.6,1.2-2.6,2.6v4.8
		C8.6,67.5,9.8,68.7,11.2,68.7 M81.2,83.7H86c1.4,0,2.6-1.2,2.6-2.6v-4.8c0-1.4-1.2-2.6-2.6-2.6h-4.8c-1.4,0-2.6,1.2-2.6,2.6v4.8
		C78.6,82.5,79.8,83.7,81.2,83.7 M11.2,83.7H16c1.4,0,2.6-1.2,2.6-2.6v-4.8c0-1.4-1.2-2.6-2.6-2.6h-4.8c-1.4,0-2.6,1.2-2.6,2.6v4.8
		C8.6,82.5,9.8,83.7,11.2,83.7 M93.6,3.7h-6v2.4c0,0.9-0.7,1.6-1.6,1.6h-4.8c-0.9,0-1.6-0.7-1.6-1.6V3.7h-62v2.4
		c0,0.9-0.7,1.6-1.6,1.6h-4.8c-0.9,0-1.6-0.7-1.6-1.6V3.7h-6v90h6v-2.4c0-0.9,0.7-1.6,1.6-1.6H16c0.9,0,1.6,0.7,1.6,1.6v2.4h62v-2.4
		c0-0.9,0.7-1.6,1.6-1.6H86c0.9,0,1.6,0.7,1.6,1.6v2.4h6V3.7L93.6,3.7z M11.1,22.7c-0.9,0-1.6-0.7-1.6-1.6v-4.9
		c0-0.9,0.7-1.6,1.6-1.6H16c0.9,0,1.6,0.7,1.6,1.6v4.9c0,0.9-0.7,1.6-1.6,1.6H11.1L11.1,22.7z M81.2,22.7c-0.9,0-1.6-0.7-1.6-1.6
		v-4.8c0-0.9,0.7-1.6,1.6-1.6H86c0.9,0,1.6,0.7,1.6,1.6v4.8c0,0.9-0.7,1.6-1.6,1.6L81.2,22.7L81.2,22.7z M11.1,37.8
		c-0.9,0-1.6-0.7-1.6-1.6v-5c0-0.9,0.7-1.6,1.6-1.6h5c0.9,0,1.6,0.7,1.6,1.6v5c0,0.9-0.7,1.6-1.6,1.6H11.1L11.1,37.8z M81.2,37.7
		c-0.9,0-1.6-0.7-1.6-1.6v-4.8c0-0.9,0.7-1.6,1.6-1.6H86c0.9,0,1.6,0.7,1.6,1.6v4.8c0,0.9-0.7,1.6-1.6,1.6H81.2L81.2,37.7z
		 M81.2,52.7c-0.9,0-1.6-0.7-1.6-1.6v-4.8c0-0.9,0.7-1.6,1.6-1.6H86c0.9,0,1.6,0.7,1.6,1.6v4.8c0,0.9-0.7,1.6-1.6,1.6H81.2
		L81.2,52.7z M11.2,52.7c-0.9,0-1.6-0.7-1.6-1.6v-4.8c0-0.9,0.7-1.6,1.6-1.6H16c0.9,0,1.6,0.7,1.6,1.6v4.8c0,0.9-0.7,1.6-1.6,1.6
		H11.2L11.2,52.7z M81.2,67.7c-0.9,0-1.6-0.7-1.6-1.6v-4.8c0-0.9,0.7-1.6,1.6-1.6H86c0.9,0,1.6,0.7,1.6,1.6v4.8
		c0,0.9-0.7,1.6-1.6,1.6H81.2L81.2,67.7z M11.2,67.7c-0.9,0-1.6-0.7-1.6-1.6v-4.8c0-0.9,0.7-1.6,1.6-1.6H16c0.9,0,1.6,0.7,1.6,1.6
		v4.8c0,0.9-0.7,1.6-1.6,1.6H11.2L11.2,67.7z M81.2,82.7c-0.9,0-1.6-0.7-1.6-1.6v-4.8c0-0.9,0.7-1.6,1.6-1.6H86
		c0.9,0,1.6,0.7,1.6,1.6v4.8c0,0.9-0.7,1.6-1.6,1.6H81.2L81.2,82.7z M11.2,82.7c-0.9,0-1.6-0.7-1.6-1.6v-4.8c0-0.9,0.7-1.6,1.6-1.6
		H16c0.9,0,1.6,0.7,1.6,1.6v4.8c0,0.9-0.7,1.6-1.6,1.6H11.2L11.2,82.7z"/>
	<path class="st5" d="M93.4,3.9v89.5h-5.5v-2.2c0-1-0.8-1.8-1.8-1.8h-4.8c-1,0-1.8,0.8-1.8,1.8v2.2H17.8v-2.2c0-1-0.8-1.8-1.8-1.8
		h-4.8c-1,0-1.8,0.8-1.8,1.8v2.2H3.8V3.9h5.5v2.2c0,1,0.8,1.8,1.8,1.8h4.8c1,0,1.8-0.8,1.8-1.8V3.9h61.5v2.2c0,1,0.8,1.8,1.8,1.8
		h4.8c1,0,1.8-0.8,1.8-1.8V3.9H93.4 M11.1,23H16c1,0,1.8-0.8,1.8-1.8v-4.9c0-1-0.8-1.8-1.8-1.8h-4.9c-1,0-1.8,0.8-1.8,1.8v4.9
		C9.3,22.2,10.1,23,11.1,23 M81.2,22.9H86c1,0,1.8-0.8,1.8-1.8v-4.8c0-1-0.8-1.8-1.8-1.8h-4.8c-1,0-1.8,0.8-1.8,1.8v4.8
		C79.4,22.1,80.2,22.9,81.2,22.9 M11.1,38h5c1,0,1.8-0.8,1.8-1.8v-5c0-1-0.8-1.8-1.8-1.8h-5c-1,0-1.8,0.8-1.8,1.8v5
		C9.3,37.2,10.1,38,11.1,38 M81.2,37.9H86c1,0,1.8-0.8,1.8-1.8v-4.8c0-1-0.8-1.8-1.8-1.8h-4.8c-1,0-1.8,0.8-1.8,1.8v4.8
		C79.4,37.1,80.2,37.9,81.2,37.9 M81.2,52.9H86c1,0,1.8-0.8,1.8-1.8v-4.8c0-1-0.8-1.8-1.8-1.8h-4.8c-1,0-1.8,0.8-1.8,1.8v4.8
		C79.4,52.1,80.2,52.9,81.2,52.9 M11.2,52.9H16c1,0,1.8-0.8,1.8-1.8v-4.8c0-1-0.8-1.8-1.8-1.8h-4.8c-1,0-1.8,0.8-1.8,1.8v4.8
		C9.4,52.1,10.2,52.9,11.2,52.9 M81.2,67.9H86c1,0,1.8-0.8,1.8-1.8v-4.8c0-1-0.8-1.8-1.8-1.8h-4.8c-1,0-1.8,0.8-1.8,1.8v4.8
		C79.4,67.1,80.2,67.9,81.2,67.9 M11.2,67.9H16c1,0,1.8-0.8,1.8-1.8v-4.8c0-1-0.8-1.8-1.8-1.8h-4.8c-1,0-1.8,0.8-1.8,1.8v4.8
		C9.4,67.1,10.2,67.9,11.2,67.9 M81.2,82.9H86c1,0,1.8-0.8,1.8-1.8v-4.8c0-1-0.8-1.8-1.8-1.8h-4.8c-1,0-1.8,0.8-1.8,1.8v4.8
		C79.4,82.1,80.2,82.9,81.2,82.9 M11.2,82.9H16c1,0,1.8-0.8,1.8-1.8v-4.8c0-1-0.8-1.8-1.8-1.8h-4.8c-1,0-1.8,0.8-1.8,1.8v4.8
		C9.4,82.1,10.2,82.9,11.2,82.9 M93.6,3.7h-6v2.4c0,0.9-0.7,1.6-1.6,1.6h-4.8c-0.9,0-1.6-0.7-1.6-1.6V3.7h-62v2.4
		c0,0.9-0.7,1.6-1.6,1.6h-4.8c-0.9,0-1.6-0.7-1.6-1.6V3.7h-6v90h6v-2.4c0-0.9,0.7-1.6,1.6-1.6H16c0.9,0,1.6,0.7,1.6,1.6v2.4h62v-2.4
		c0-0.9,0.7-1.6,1.6-1.6H86c0.9,0,1.6,0.7,1.6,1.6v2.4h6V3.7L93.6,3.7z M11.1,22.7c-0.9,0-1.6-0.7-1.6-1.6v-4.9
		c0-0.9,0.7-1.6,1.6-1.6H16c0.9,0,1.6,0.7,1.6,1.6v4.9c0,0.9-0.7,1.6-1.6,1.6H11.1L11.1,22.7z M81.2,22.7c-0.9,0-1.6-0.7-1.6-1.6
		v-4.8c0-0.9,0.7-1.6,1.6-1.6H86c0.9,0,1.6,0.7,1.6,1.6v4.8c0,0.9-0.7,1.6-1.6,1.6L81.2,22.7L81.2,22.7z M11.1,37.8
		c-0.9,0-1.6-0.7-1.6-1.6v-5c0-0.9,0.7-1.6,1.6-1.6h5c0.9,0,1.6,0.7,1.6,1.6v5c0,0.9-0.7,1.6-1.6,1.6H11.1L11.1,37.8z M81.2,37.7
		c-0.9,0-1.6-0.7-1.6-1.6v-4.8c0-0.9,0.7-1.6,1.6-1.6H86c0.9,0,1.6,0.7,1.6,1.6v4.8c0,0.9-0.7,1.6-1.6,1.6H81.2L81.2,37.7z
		 M81.2,52.7c-0.9,0-1.6-0.7-1.6-1.6v-4.8c0-0.9,0.7-1.6,1.6-1.6H86c0.9,0,1.6,0.7,1.6,1.6v4.8c0,0.9-0.7,1.6-1.6,1.6H81.2
		L81.2,52.7z M11.2,52.7c-0.9,0-1.6-0.7-1.6-1.6v-4.8c0-0.9,0.7-1.6,1.6-1.6H16c0.9,0,1.6,0.7,1.6,1.6v4.8c0,0.9-0.7,1.6-1.6,1.6
		H11.2L11.2,52.7z M81.2,67.7c-0.9,0-1.6-0.7-1.6-1.6v-4.8c0-0.9,0.7-1.6,1.6-1.6H86c0.9,0,1.6,0.7,1.6,1.6v4.8
		c0,0.9-0.7,1.6-1.6,1.6H81.2L81.2,67.7z M11.2,67.7c-0.9,0-1.6-0.7-1.6-1.6v-4.8c0-0.9,0.7-1.6,1.6-1.6H16c0.9,0,1.6,0.7,1.6,1.6
		v4.8c0,0.9-0.7,1.6-1.6,1.6H11.2L11.2,67.7z M81.2,82.7c-0.9,0-1.6-0.7-1.6-1.6v-4.8c0-0.9,0.7-1.6,1.6-1.6H86
		c0.9,0,1.6,0.7,1.6,1.6v4.8c0,0.9-0.7,1.6-1.6,1.6H81.2L81.2,82.7z M11.2,82.7c-0.9,0-1.6-0.7-1.6-1.6v-4.8c0-0.9,0.7-1.6,1.6-1.6
		H16c0.9,0,1.6,0.7,1.6,1.6v4.8c0,0.9-0.7,1.6-1.6,1.6H11.2L11.2,82.7z"/>
	<g class="st0">
		<path class="st6" d="M92.6,4.7v88h-4v-1.4c0-1.4-1.2-2.6-2.6-2.6h-4.8c-1.4,0-2.6,1.2-2.6,2.6v1.4h-60v-1.4c0-1.4-1.2-2.6-2.6-2.6
			h-4.8c-1.4,0-2.6,1.2-2.6,2.6v1.4h-4v-88h4v1.4c0,1.4,1.2,2.6,2.6,2.6H16c1.4,0,2.6-1.2,2.6-2.6V4.7h60v1.4c0,1.4,1.2,2.6,2.6,2.6
			H86c1.4,0,2.6-1.2,2.6-2.6V4.7H92.6 M11.1,23.7H16c1.4,0,2.6-1.2,2.6-2.6v-4.9c0-1.4-1.2-2.6-2.6-2.6h-4.9c-1.4,0-2.6,1.2-2.6,2.6
			v4.9C8.6,22.6,9.7,23.7,11.1,23.7 M81.2,23.7H86c1.4,0,2.6-1.2,2.6-2.6v-4.8c0-1.4-1.2-2.6-2.6-2.6h-4.8c-1.4,0-2.6,1.2-2.6,2.6
			v4.8C78.6,22.5,79.8,23.7,81.2,23.7 M11.1,38.8h5c1.4,0,2.6-1.2,2.6-2.6v-5c0-1.4-1.2-2.6-2.6-2.6h-5c-1.4,0-2.6,1.2-2.6,2.6v5
			C8.5,37.6,9.7,38.8,11.1,38.8 M81.2,38.7H86c1.4,0,2.6-1.2,2.6-2.6v-4.8c0-1.4-1.2-2.6-2.6-2.6h-4.8c-1.4,0-2.6,1.2-2.6,2.6v4.8
			C78.6,37.5,79.8,38.7,81.2,38.7 M81.2,53.7H86c1.4,0,2.6-1.2,2.6-2.6v-4.8c0-1.4-1.2-2.6-2.6-2.6h-4.8c-1.4,0-2.6,1.2-2.6,2.6v4.8
			C78.6,52.5,79.8,53.7,81.2,53.7 M11.2,53.7H16c1.4,0,2.6-1.2,2.6-2.6v-4.8c0-1.4-1.2-2.6-2.6-2.6h-4.8c-1.4,0-2.6,1.2-2.6,2.6v4.8
			C8.6,52.5,9.8,53.7,11.2,53.7 M81.2,68.7H86c1.4,0,2.6-1.2,2.6-2.6v-4.8c0-1.4-1.2-2.6-2.6-2.6h-4.8c-1.4,0-2.6,1.2-2.6,2.6v4.8
			C78.6,67.5,79.8,68.7,81.2,68.7 M11.2,68.7H16c1.4,0,2.6-1.2,2.6-2.6v-4.8c0-1.4-1.2-2.6-2.6-2.6h-4.8c-1.4,0-2.6,1.2-2.6,2.6v4.8
			C8.6,67.5,9.8,68.7,11.2,68.7 M81.2,83.7H86c1.4,0,2.6-1.2,2.6-2.6v-4.8c0-1.4-1.2-2.6-2.6-2.6h-4.8c-1.4,0-2.6,1.2-2.6,2.6v4.8
			C78.6,82.5,79.8,83.7,81.2,83.7 M11.2,83.7H16c1.4,0,2.6-1.2,2.6-2.6v-4.8c0-1.4-1.2-2.6-2.6-2.6h-4.8c-1.4,0-2.6,1.2-2.6,2.6v4.8
			C8.6,82.5,9.8,83.7,11.2,83.7 M93.6,3.7h-6v2.4c0,0.9-0.7,1.6-1.6,1.6h-4.8c-0.9,0-1.6-0.7-1.6-1.6V3.7h-62v2.4
			c0,0.9-0.7,1.6-1.6,1.6h-4.8c-0.9,0-1.6-0.7-1.6-1.6V3.7h-6v90h6v-2.4c0-0.9,0.7-1.6,1.6-1.6H16c0.9,0,1.6,0.7,1.6,1.6v2.4h62
			v-2.4c0-0.9,0.7-1.6,1.6-1.6H86c0.9,0,1.6,0.7,1.6,1.6v2.4h6V3.7L93.6,3.7z M11.1,22.7c-0.9,0-1.6-0.7-1.6-1.6v-4.9
			c0-0.9,0.7-1.6,1.6-1.6H16c0.9,0,1.6,0.7,1.6,1.6v4.9c0,0.9-0.7,1.6-1.6,1.6H11.1L11.1,22.7z M81.2,22.7c-0.9,0-1.6-0.7-1.6-1.6
			v-4.8c0-0.9,0.7-1.6,1.6-1.6H86c0.9,0,1.6,0.7,1.6,1.6v4.8c0,0.9-0.7,1.6-1.6,1.6L81.2,22.7L81.2,22.7z M11.1,37.8
			c-0.9,0-1.6-0.7-1.6-1.6v-5c0-0.9,0.7-1.6,1.6-1.6h5c0.9,0,1.6,0.7,1.6,1.6v5c0,0.9-0.7,1.6-1.6,1.6H11.1L11.1,37.8z M81.2,37.7
			c-0.9,0-1.6-0.7-1.6-1.6v-4.8c0-0.9,0.7-1.6,1.6-1.6H86c0.9,0,1.6,0.7,1.6,1.6v4.8c0,0.9-0.7,1.6-1.6,1.6H81.2L81.2,37.7z
			 M81.2,52.7c-0.9,0-1.6-0.7-1.6-1.6v-4.8c0-0.9,0.7-1.6,1.6-1.6H86c0.9,0,1.6,0.7,1.6,1.6v4.8c0,0.9-0.7,1.6-1.6,1.6H81.2
			L81.2,52.7z M11.2,52.7c-0.9,0-1.6-0.7-1.6-1.6v-4.8c0-0.9,0.7-1.6,1.6-1.6H16c0.9,0,1.6,0.7,1.6,1.6v4.8c0,0.9-0.7,1.6-1.6,1.6
			H11.2L11.2,52.7z M81.2,67.7c-0.9,0-1.6-0.7-1.6-1.6v-4.8c0-0.9,0.7-1.6,1.6-1.6H86c0.9,0,1.6,0.7,1.6,1.6v4.8
			c0,0.9-0.7,1.6-1.6,1.6H81.2L81.2,67.7z M11.2,67.7c-0.9,0-1.6-0.7-1.6-1.6v-4.8c0-0.9,0.7-1.6,1.6-1.6H16c0.9,0,1.6,0.7,1.6,1.6
			v4.8c0,0.9-0.7,1.6-1.6,1.6H11.2L11.2,67.7z M81.2,82.7c-0.9,0-1.6-0.7-1.6-1.6v-4.8c0-0.9,0.7-1.6,1.6-1.6H86
			c0.9,0,1.6,0.7,1.6,1.6v4.8c0,0.9-0.7,1.6-1.6,1.6H81.2L81.2,82.7z M11.2,82.7c-0.9,0-1.6-0.7-1.6-1.6v-4.8c0-0.9,0.7-1.6,1.6-1.6
			H16c0.9,0,1.6,0.7,1.6,1.6v4.8c0,0.9-0.7,1.6-1.6,1.6H11.2L11.2,82.7z"/>
	</g>
</g>
</svg>
