<?xml version="1.0" encoding="utf-8"?>
<!-- Generator: Adobe Illustrator 24.0.3, SVG Export Plug-In . SVG Version: 6.00 Build 0)  -->
<svg version="1.1" id="Layer_1" xmlns="http://www.w3.org/2000/svg" xmlns:xlink="http://www.w3.org/1999/xlink" x="0px" y="0px"
	 viewBox="0 0 64 64" style="enable-background:new 0 0 64 64;" xml:space="preserve">
<style type="text/css">
	.st0{fill:#F2F6F7;}
	.st1{fill:none;stroke:#F2F6F7;stroke-width:2;stroke-linecap:round;stroke-miterlimit:10;}
	.st2{fill:none;stroke:#000000;stroke-width:2;stroke-linecap:round;stroke-miterlimit:10;}
</style>
<g>
	<path class="st0" d="M-70.3,49.3V21.8c0-1.6,0.9-2.5,2.5-2.5h4.9c5.1,0,7.6,2.8,7.6,8v3.2c0,5.2-2.5,8-7.6,8h-2.4v10.9
		c0,1.6-0.9,2.5-2.5,2.5S-70.3,51-70.3,49.3z M-62.8,33.8c1.6,0,2.5-0.7,2.5-3V27c0-2.3-0.9-3-2.5-3h-2.4v9.9H-62.8z"/>
	<path class="st0" d="M-52.5,49.3V21.6c0-1.5,1.1-2.5,2.5-2.5c1.5,0,2.5,1.1,2.5,2.5v27.8c0,1.5-1.1,2.5-2.5,2.5
		C-51.4,51.9-52.5,50.8-52.5,49.3z"/>
	<path class="st0" d="M-44,44.1V26.8c0-5,2.6-7.9,7.5-7.9s7.5,3,7.5,7.9v1.3c0,1.4-1,2.4-2.4,2.4c-1.4,0-2.4-1-2.4-2.4v-1.6
		c0-2.1-1-3-2.5-3c-1.5,0-2.5,0.9-2.5,3v18c0,2.1,1,3,2.5,3c1.5,0,2.5-0.8,2.5-3v-2.8c0-1.4,1-2.4,2.4-2.4c1.4,0,2.4,0.9,2.4,2.4
		v2.4c0,5-2.6,7.9-7.5,7.9S-44,49.1-44,44.1z"/>
	<path class="st0" d="M-22,49.3V23.9h-3.3c-1.5,0-2.3-0.8-2.3-2.3s0.8-2.3,2.3-2.3h11.6c1.5,0,2.3,0.8,2.3,2.3s-0.8,2.3-2.3,2.3
		h-3.3v25.4c0,1.6-0.9,2.5-2.5,2.5C-21.1,51.9-22,51-22,49.3z"/>
</g>
<line class="st1" x1="-54" y1="17.3" x2="-56.5" y2="14.8"/>
<line class="st1" x1="-46.5" y1="17.3" x2="-44" y2="14.8"/>
<line class="st1" x1="-50.2" y1="15.8" x2="-50.2" y2="12.3"/>
<g>
	<g>
		<path d="M2.5,49.2V21.7c0-1.6,0.9-2.5,2.5-2.5H10c5.1,0,7.6,2.8,7.6,8v3.2c0,5.2-2.5,8-7.6,8H7.6v10.9c0,1.6-0.9,2.5-2.5,2.5
			S2.5,50.8,2.5,49.2z M10,33.7c1.6,0,2.5-0.7,2.5-3v-3.8c0-2.3-0.9-3-2.5-3H7.6v9.9H10z"/>
		<path d="M20.3,49.2V21.4c0-1.5,1.1-2.5,2.5-2.5c1.5,0,2.5,1.1,2.5,2.5v27.8c0,1.5-1.1,2.5-2.5,2.5C21.4,51.7,20.3,50.6,20.3,49.2z
			"/>
		<path d="M28.9,44V26.6c0-5,2.6-7.9,7.5-7.9s7.5,3,7.5,7.9v1.3c0,1.4-1,2.4-2.4,2.4c-1.4,0-2.4-1-2.4-2.4v-1.6c0-2.1-1-3-2.5-3
			c-1.5,0-2.5,0.9-2.5,3v18c0,2.1,1,3,2.5,3c1.5,0,2.5-0.8,2.5-3v-2.8c0-1.4,1-2.4,2.4-2.4c1.4,0,2.4,0.9,2.4,2.4V44
			c0,5-2.6,7.9-7.5,7.9S28.9,48.9,28.9,44z"/>
		<path d="M50.8,49.2V23.8h-3.3c-1.5,0-2.3-0.8-2.3-2.3s0.8-2.3,2.3-2.3h11.6c1.5,0,2.3,0.8,2.3,2.3s-0.8,2.3-2.3,2.3h-3.3v25.4
			c0,1.6-0.9,2.5-2.5,2.5C51.7,51.7,50.8,50.8,50.8,49.2z"/>
	</g>
	<line class="st2" x1="18.9" y1="17.1" x2="16.4" y2="14.6"/>
	<line class="st2" x1="26.4" y1="17.1" x2="28.9" y2="14.6"/>
	<line class="st2" x1="22.6" y1="15.6" x2="22.6" y2="12.1"/>
</g>
</svg>
