<?xml version="1.0" encoding="utf-8"?>
<!-- Generator: Adobe Illustrator 24.0.3, SVG Export Plug-In . SVG Version: 6.00 Build 0)  -->
<svg version="1.1" id="Layer_1" xmlns="http://www.w3.org/2000/svg" xmlns:xlink="http://www.w3.org/1999/xlink" x="0px" y="0px"
	 viewBox="0 0 100 44.2" style="enable-background:new 0 0 100 44.2;" xml:space="preserve">
<style type="text/css">
	.st0{fill:#6200EE;}
</style>
<polygon class="st0" points="80.2,28 64,13.5 35.5,42 80.2,42 "/>
<polygon class="st0" points="38.5,17.3 19.8,30.3 19.8,42 32.6,42 48.5,26.1 "/>
<path class="st0" d="M27.8,12.2c1.6,0,3-1.3,3-3c0-1.6-1.3-3-3-3c-1.6,0-3,1.3-3,3C24.8,10.8,26.1,12.2,27.8,12.2z"/>
<path class="st0" d="M19.8,27.9l18.8-13.2l11.4,10l13.9-13.9l16.3,14.6V1.8H19.8V27.9z M27.8,4.2c2.7,0,5,2.2,5,5c0,2.7-2.2,5-5,5
	s-5-2.2-5-5C22.8,6.5,25,4.2,27.8,4.2z"/>
<polygon class="st0" points="11.3,31.3 1.9,21.9 11.3,12.5 12.7,14 4.7,21.9 12.7,29.8 "/>
<polygon class="st0" points="88.7,31.3 87.3,29.8 95.3,21.9 87.3,14 88.7,12.5 98.1,21.9 "/>
</svg>
